<?xml version="1.0" standalone="no"?><!DOCTYPE svg PUBLIC "-//W3C//DTD SVG 1.1//EN" "http://www.w3.org/Graphics/SVG/1.1/DTD/svg11.dtd"><svg t="1563352682538" class="icon" viewBox="0 0 1024 1024" version="1.1" xmlns="http://www.w3.org/2000/svg" p-id="2055" xmlns:xlink="http://www.w3.org/1999/xlink" width="200" height="200"><defs><style type="text/css"></style></defs><path d="M728.345 64.223H224.056V321.34h68.687V133.019h378.844v187.78h186.917v569.777H292.743v-84.271h-0.715v-68.796h0.715v-53.046h-68.687v274.909h703.135V256.486z" fill="#819292" p-id="2056"></path><path d="M660.276 418.403h129.217v67.077H660.276zM660.276 578.386h129.217v67.077H660.276zM660.276 738.369h129.217v67.077H660.276z" fill="#819292" p-id="2057"></path><path d="M586.15 408.784h-68.687v328.725H292.028v68.796H586.15z" fill="#50A135" p-id="2058"></path><path d="M460.55 684.463V321.34H98.004v363.123H460.55z m-234.043-70.305l-85.787 0.722 93.843-110.912-93.843-113.045 81.805 0.225 53.747 63.523 53.747-63.523 81.805-0.225-93.843 113.044 93.843 110.912-85.787-0.722-49.765-59.948-49.765 59.949z" fill="#50A135" p-id="2059"></path><path d="M326.038 614.158l85.787 0.722-93.843-110.913 93.843-113.044-81.805 0.225-53.747 63.524-53.748-63.524-81.805-0.225 93.844 113.044L140.72 614.88l85.787-0.722 49.766-59.948z" fill="#FFFFFF" p-id="2060"></path></svg>