<?xml version="1.0" standalone="no"?><!DOCTYPE svg PUBLIC "-//W3C//DTD SVG 1.1//EN" "http://www.w3.org/Graphics/SVG/1.1/DTD/svg11.dtd"><svg t="1563352916450" class="icon" viewBox="0 0 1024 1024" version="1.1" xmlns="http://www.w3.org/2000/svg" p-id="4300" xmlns:xlink="http://www.w3.org/1999/xlink" width="200" height="200"><defs><style type="text/css"></style></defs><path d="M576 256h146.88l-229.76 229.76a80 80 0 0 0-29.12-5.76h-384A80 80 0 0 0 0 560v384A80 80 0 0 0 80 1024h384a80 80 0 0 0 80-80v-384a80 80 0 0 0-5.76-29.12L768 301.12V448h64V192h-256z m-96 688a16.32 16.32 0 0 1-16 16h-384a16.32 16.32 0 0 1-16-16v-384a16.32 16.32 0 0 1 16-16h384a16.32 16.32 0 0 1 16 16zM0 352h64v64H0zM0 224h64v64H0zM960 352h64v64h-64zM960 224h64v64h-64zM960 608h64v64h-64zM960 736h64v64h-64zM960 480h64v64h-64zM64 64h96V0H0v160h64V64zM224 0h64v64H224zM352 0h64v64h-64zM480 0h64v64h-64zM608 0h64v64h-64zM736 0h64v64h-64zM608 960h64v64h-64zM736 960h64v64h-64zM864 0v64h96v96h64V0h-160zM960 960h-96v64h160v-160h-64v96z" fill="#54C3F1" p-id="4301"></path></svg>